# xmcd
#
# Track frame offsets:
#	188
#	12000
#	25763
#	37800
#	50363
#	60000
#	73088
#	86475
#	98738
#	111713
#	130238
#	140438
#	151463
#	163238
#	176063
#	188288
#
# Disc length: 2645 seconds
#
# Revision: 0
# Processed by: cddbd v1.4PL0 Copyright (c) Steve Scherf et al.
# Submitted via: audiograbber 1.80.04
#
DISCID=c80a5310
DTITLE=Dave Dudley - Six Days On The Road
DYEAR=1900
DGENRE=
TTITLE0=Six Days On The Road
TTITLE1=I Was Country Before  Barbara Mandrell
TTITLE2=Eagles Fly Alone
TTITLE3=There Ain't No Easy Run
TTITLE4=My Love Train Is Rollin' On Your Track
TTITLE5=I Can't Remember You
TTITLE6=Counterfeit Cowboy
TTITLE7=How Come It Took So Long To Say Goodbye
TTITLE8=The Pool Shark
TTITLE9=He Doesn't Live There Anymore
TTITLE10=Don't Need The Rain
TTITLE11=My Town
TTITLE12=Where Did All The Cowboys Go
TTITLE13=Me And Ole C.B.
TTITLE14=Wave At 'em Billy Boy
TTITLE15=The Night You Broke The News
EXTD=
EXTT0=
EXTT1=
EXTT2=
EXTT3=
EXTT4=
EXTT5=
EXTT6=
EXTT7=
EXTT8=
EXTT9=
EXTT10=
EXTT11=
EXTT12=
EXTT13=
EXTT14=
EXTT15=
PLAYORDER=
